<svg width="300" height="300" xmlns="http://www.w3.org/2000/svg">
 <style type="text/css">.st0{fill:#98C4E5;}
	.st1{fill:#82ABD1;}
	.st2{fill:#726958;}
	.st3{fill:#3B587A;}
	.st4{opacity:0.1;fill:#211915;}
	.st5{fill:#444242;}
	.st6{fill:#EDDD4F;}
	.st7{opacity:5.000000e-002;}
	.st8{fill:#EFF0F0;}
	.st9{opacity:0.1;}
	.st10{fill:#FCD8BE;}
	.st11{fill:#ECEFC5;}
	.st12{fill:#B32628;}
	.st13{fill:#FFFFFF;}
	.st14{fill:#211915;}
	.st15{fill:#DB5364;}
	.st16{fill:#BE1E2D;}
	.st17{fill:none;stroke:#444242;stroke-width:2;stroke-miterlimit:10;}
	.st18{fill:#9B897B;}
	.st19{fill:#547BA3;}
	.st20{fill:#FFCC33;}
	.st21{fill:#BC9E6C;}
	.st22{opacity:0.2;}
	.st23{fill:#EFC09A;}
	.st24{fill:#E5E5E5;}
	.st25{fill:#9D613D;}
	.st26{fill:#E4E5E6;}
	.st27{opacity:0.3;}
	.st28{opacity:0.8;fill:#FFFFFF;}
	.st29{fill:none;stroke:#444242;stroke-width:4;stroke-miterlimit:10;}
	.st30{fill:#87868A;}
	.st31{fill:#FF9999;}</style>

 <g>
  <title>background</title>
  <rect fill="none" id="canvas_background" height="302" width="302" y="-1" x="-1"/>
 </g>
 <g>
  <title>Layer 1</title>
  <path id="svg_177" d="m147.090488,287.285721l0,0c43.4,0 82.1,-20.3 107,-51.9l-214,0c24.9,31.6 63.6,51.9 107,51.9z" class="st2"/>
  <path id="svg_178" d="m283.290488,151.085721l0,0c0,-75.2 -61,-136.2 -136.2,-136.2l0,0c-75.2,0 -136.2,61 -136.2,136.2l0,0c0,31.8 10.9,61.1 29.2,84.3l214,0c18.3,-23.2 29.2,-52.5 29.2,-84.3z" class="st3"/>
  <path id="svg_180" d="m132.366556,136.485721l-1.2,0.5c-6.3,2.6 -13.5,-0.7 -15.8,-7.2l0,0c-2.3,-6.7 1.7,-14 8.6,-15.6l55.5,-12.6" class="st29"/>
  <path id="svg_181" d="m161.814389,136.485721l1.2,0.5c6.3,2.6 13.5,-0.7 15.8,-7.2l0,0c2.3,-6.7 -1.7,-14 -8.6,-15.6l-55.5,-12.6" class="st29"/>
  <g id="Manager">
   <path id="svg_182" d="m197.040055,206.485721c-39.6,0 -30.8,-19.4 -33.5,-38.9l-32.8,0c-2.7,19.4 6.1,38.9 -33.5,38.9c-25.3,0 -33.9,11.1 -33.9,35.5l0,16.4c23.1,18.1 52.2,28.8 83.8,28.8c31.6,0 60.7,-10.8 83.8,-28.8l0,-16.4c0.1,-24.4 -8.6,-35.5 -33.9,-35.5z" class="st23"/>
   <path id="svg_183" d="m164.240055,178.885721c-0.1,-3.3 -0.2,-6.8 -0.7,-10.2l-32.8,0c-0.5,3.4 -0.6,6.9 -0.7,10.2c4.7,3 10.4,4.9 17.1,4.9c6.8,-0.1 12.4,-1.9 17.1,-4.9z" class="st9"/>
   <path id="svg_184" d="m197.040055,206.485721c-5.2,0 -9.5,-0.3 -13.2,-1l-36.7,4l-36.7,-4c-3.7,0.6 -8,1 -13.2,1c-25.3,0 -33.9,11.1 -33.9,35.5l0,16.4c23.1,18.1 52.2,28.8 83.8,28.8c31.6,0 60.7,-10.8 83.8,-28.8l0,-16.4c0.1,-24.4 -8.6,-35.5 -33.9,-35.5z" class="st8"/>
   <path id="svg_185" d="m164.040055,209.785721l-33.7,0l11.6,15.3l-3.1,61.9c2.7,0.2 5.3,0.2 8,0.2c2.9,0 5.7,-0.1 8.6,-0.3l-3.1,-61.9l11.7,-15.2z" class="st16"/>
   <path id="svg_186" d="m197.040055,206.485721c-5.2,0 -9.5,-0.3 -13.2,-1l-36.7,73l-36.8,-73c-3.7,0.6 -8,1 -13.2,1c-25.3,0 -33.9,11.1 -33.9,35.5l0,16.4c23.1,18.1 52.2,28.8 83.8,28.8c31.6,0 60.7,-10.8 83.8,-28.8l0,-16.4c0.2,-24.4 -8.5,-35.5 -33.8,-35.5z" class="st14"/>
   <path id="svg_187" d="m142.040055,225.085721l10.3,0c0,0 -2.6,0.9 -5.2,0.9s-5.1,-0.9 -5.1,-0.9z" class="st22"/>
   <polygon id="svg_188" points="128.8387451171875,191.58570861816406 126.33880615234375,191.58570861816406 110.33880615234375,205.38572692871094 127.438720703125,229.58570861816406 147.23876953125,209.58570861816406 " class="st8"/>
   <polygon id="svg_189" points="165.63885498046875,191.58570861816406 168.0386962890625,191.58570861816406 184.0386962890625,205.38572692871094 166.93878173828125,229.58570861816406 147.23876953125,209.58570861816406 " class="st8"/>
   <ellipse id="svg_190" ry="8.7" rx="7.3" cy="133.785721" cx="107.440055" class="st23"/>
   <ellipse id="svg_191" ry="8.7" rx="7.3" cy="133.785721" cx="187.040055" class="st23"/>
   <path id="svg_192" d="m154.540055,71.585721l-14.6,0c-19.2,0 -34.8,22.5 -34.8,41.7c0,0 1.1,67.4 42.1,67.4c40.9,0 42.1,-67.4 42.1,-67.4c0,-19.2 -15.6,-41.7 -34.8,-41.7z" class="st23"/>
   <path id="svg_193" d="m190.740055,126.185721c6.2,-9.3 13.4,-66.7 -21.6,-65.2c-30.8,-26.4 -86.4,8.8 -65.4,65.2l4,2.5c0,0 -0.5,-6.5 2.3,-12.9c2.9,-6.4 10.6,-12 12.7,-25.5c2.2,-13.6 40.6,11.2 46.4,-5.7c4.2,18.9 16,22.6 17.7,31.2c1.7,8.6 -0.1,12.9 -0.1,12.9l4,-2.5z" class="st30"/>
   <path id="svg_194" d="m186.840055,115.785721c-1.7,-8.6 -13.5,-12.3 -17.7,-31.2c-5.8,16.9 -44.2,-7.9 -46.4,5.7c-2.2,13.6 -9.9,19.1 -12.7,25.5c-2.9,6.4 -2.3,12.9 -2.3,12.9c0.1,-2.5 0.7,-6 2.3,-9.7c2.9,-6.4 10.6,-12 12.7,-25.5c2.2,-13.6 40.6,11.2 46.4,-5.7c4.2,18.9 16,22.6 17.7,31.2c0.4,2.1 0.6,3.9 0.7,5.4c0.1,-2 0,-4.9 -0.7,-8.6z" class="st9"/>
   <path id="svg_195" d="m127.440055,231.685721l19.7,-20.6l19.7,20.6l18.7,-25.9l0,0c-0.6,-0.1 -1.2,-0.2 -1.7,-0.3l-17,24.1l-19.7,-20.1l-19.7,20.1l-17,-24.1c-0.6,0.1 -1.1,0.2 -1.7,0.3l0,0l18.7,25.9z" class="st9"/>
   <polygon id="svg_196" points="121.93878173828125,195.38572692871094 97.33880615234375,206.48573303222656 118.23876953125,225.08570861816406 107.93878173828125,231.6857452392578 147.23876953125,278.58570861816406 " class="st14"/>
   <polygon id="svg_197" points="172.5386962890625,195.38572692871094 197.13885498046875,206.48573303222656 176.23876953125,225.08570861816406 186.5386962890625,231.6857452392578 147.23876953125,278.58570861816406 " class="st14"/>
   <path id="svg_198" d="m197.140055,206.485721l-20.9,18.6l1.4,0.9l21.5,-19.5c-0.7,0 -1.3,0 -2,0z" class="st9"/>
   <path id="svg_199" d="m97.140055,206.485721l20.9,18.6l-1.4,0.9l-21.5,-19.5c0.7,0 1.3,0 2,0z" class="st9"/>
   <polygon id="svg_200" points="185.438720703125,233.08570861816406 147.23876953125,278.58570861816406 109.0386962890625,233.08570861816406 107.93878173828125,233.88575744628906 147.23876953125,280.88575744628906 186.5386962890625,233.88575744628906 " class="st9"/>
  </g>
  <g id="svg_201">
   <path id="svg_202" d="m103.840512,131.685721c0.1,1.2 0.2,2.3 0.4,3.4c0.1,0.5 0.2,1.1 0.4,1.6c0.2,0.5 0.4,1 0.7,1.6c-0.6,-0.3 -1,-0.7 -1.4,-1.2c-0.3,-0.5 -0.6,-1.1 -0.7,-1.7c-0.1,-0.6 -0.1,-1.2 0,-1.9c0.1,-0.6 0.3,-1.2 0.6,-1.8z" class="st9"/>
   <path id="svg_203" d="m190.340512,131.685721c-0.1,1.2 -0.2,2.3 -0.4,3.4c-0.1,0.5 -0.2,1.1 -0.4,1.6c-0.2,0.5 -0.4,1 -0.7,1.6c0.6,-0.3 1,-0.7 1.4,-1.2c0.3,-0.5 0.6,-1.1 0.7,-1.7c0.1,-0.6 0.1,-1.2 0,-1.9c-0.1,-0.6 -0.2,-1.2 -0.6,-1.8z" class="st9"/>
  </g>
  <g id="svg_204">
   <ellipse id="svg_205" ry="7.5" rx="5.4" cy="127.385721" cx="130.590494" class="st13"/>
   <ellipse id="svg_206" ry="7.5" rx="5.4" cy="127.385721" cx="163.590494" class="st13"/>
   <ellipse id="svg_207" ry="3.9" rx="2.8" cy="128.685721" cx="163.590494" class="st14"/>
   <ellipse id="svg_208" ry="3.9" rx="2.8" cy="128.685721" cx="130.590494" class="st14"/>
   <path id="svg_209" d="m144.690494,129.285721c0.1,0.9 0.2,1.7 0.3,2.6c0.1,0.9 0.1,1.7 0.2,2.6c0.1,1.7 0.1,3.5 0.1,5.2l0,0.3l-0.3,0.2c-0.6,0.4 -1.1,0.9 -1.6,1.5c-0.5,0.5 -0.8,1.2 -0.9,1.8c-0.1,0.6 0.1,1.3 0.5,1.9c0.2,0.3 0.5,0.6 0.7,0.8c0.3,0.2 0.6,0.5 0.9,0.7c-0.4,-0.2 -0.7,-0.3 -1.1,-0.5c-0.3,-0.2 -0.7,-0.4 -1,-0.7c-0.6,-0.5 -1.1,-1.4 -1,-2.4c0,-0.9 0.5,-1.7 1,-2.4c0.5,-0.7 1.1,-1.2 1.8,-1.8l-0.3,0.5c0,-1.7 0,-3.5 0.1,-5.2c0,-0.9 0.1,-1.7 0.2,-2.6c0.2,-0.7 0.3,-1.6 0.4,-2.5z" class="st9"/>
   <g id="svg_210" class="st9">
    <path id="svg_211" d="m147.090494,163.485721c6.5,0 11.8,-2.9 11.8,-2.9l-23.7,0c0,0 5.3,2.9 11.9,2.9z"/>
    <path id="svg_212" d="m135.190494,160.585721l23.7,0c0,0 -5.3,-2.9 -11.8,-2.9c-6.6,0.1 -11.9,2.9 -11.9,2.9z"/>
   </g>
  </g>
  <g id="svg_215">
   <path id="svg_216" d="m106.854032,146.085721l0,0c-4.8,1.6 -10,-1 -11.6,-5.8l-2.5,-7.6c-1.6,-4.8 1,-10 5.8,-11.6l0,0c1,-0.3 2.2,0.2 2.5,1.3l7.1,21.2c0.4,1 -0.2,2.1 -1.3,2.5z" class="st12"/>
   <path id="svg_217" d="m161.854032,159.985721l5.3,0c11.1,0 21.2,-7.3 25.5,-18.6l0,0" class="st17"/>
   <path id="svg_218" d="m186.854032,145.885721l0,0c-1,-0.4 -1.6,-1.5 -1.2,-2.6l7.6,-21c0.4,-1 1.5,-1.6 2.6,-1.2l0,0c4.8,1.7 7.2,7 5.5,11.7l-2.7,7.5c-1.8,4.8 -7,7.3 -11.8,5.6z" class="st12"/>
   <path id="svg_219" d="m164.554032,159.185721l0,1.6c0,1.9 -1.4,3.5 -3.3,3.8l-7,0.9c-2.2,0.3 -4.2,-1.5 -4.2,-3.7l0,-3.2c0,-2.3 1.9,-4 4.2,-3.8l7,0.8c1.9,0.1 3.3,1.7 3.3,3.6z" class="st12"/>
  </g>
 </g>
</svg>
